#Comment line ignore any data following # character
#Hierarchical Translation and Rotation (.htr) file
[Header]		#Header keywords are followed by a single value
FileType htr		#Single word string
DataType HTRS		#Translation followed by rotation and scale data
FileVersion 1		#integer
NumSegments 15		#integer
NumFrames 7		#integer
DataFrameRate 60		#integer, data frame rate in this file
EulerRotationOrder ZYX
CalibrationUnits mm
RotationUnits Degrees
GlobalAxisofGravity Y
BoneLengthAxis Y
ScaleFactor 1.000000
[SegmentNames&Hierarchy]
#CHILD	PARENT
1cou	1buste
1buste	1bassin
1brasG	1buste
1brasD	1buste
1avbrasG	1brasG
1avbrasD	1brasD
1mainG	1avbrasG
1mainD	1avbrasD
1bassin	GLOBAL
1cuisseG	1bassin
1cuisseD	1bassin
1moletG	1cuisseG
1moletD	1cuisseD
1piedG	1moletG
1piedD	1moletD
[BasePosition]
#SegmentName Tx, Ty, Tz, Rx, Ry, Rz, BoneLength
1cou	0.000002	394.639771	0.000003	47.447697	-6.500580	2.097482	232.574402
1buste	0.331046	98.159424	9.920088	5.813737	-6.959647	-0.900074	394.639771
1brasG	222.293304	333.760773	-3.143221	-5.521868	-4.449825	-174.025208	338.016541
1brasD	-186.675308	347.235016	-30.968008	-5.508482	16.777920	169.824814	318.101379
1avbrasG	0.000004	338.016571	-0.000002	34.403133	17.432653	23.106703	253.821075
1avbrasD	-0.000007	318.101410	-0.000013	32.381824	-10.529597	-11.344105	276.946075
1mainG	0.000006	253.821091	-0.000001	-3.773718	-0.485368	-1.748444	73.639816
1mainD	-0.000031	276.946106	-0.000010	-3.909555	0.199285	0.225476	80.942635
1bassin	396.031860	1037.839600	833.112305	178.297836	19.764000	-179.799622	97.859962
1cuisseG	108.625954	-0.934603	-40.474510	172.403458	-4.353497	-0.165467	517.714233
1cuisseD	-106.972656	-1.326527	-48.733826	172.076172	-12.757409	2.045154	501.698334
1moletG	0.000006	517.714233	-0.000009	157.872192	5.331374	176.676331	488.075745
1moletD	-0.000005	501.698303	0.000003	156.316269	3.295414	-177.725830	511.880615
1piedG	0.000002	488.075745	-0.000006	99.880898	-0.000004	0.000000	242.425140
1piedD	-0.000009	511.880646	-0.000013	102.622849	0.000000	0.000000	237.138092
#Beginning of Data. Separated by tabs
[1cou]
#Fr	Tx	Ty	Tz	Rx	Ry	Rz	SF
149	-0.000015	-37.506470	-0.000010	-4.755823	-21.872257	11.783025	0.961355
150	-0.000004	-36.890503	-0.000004	-4.981372	-22.053366	11.757833	0.960022
151	0.000002	-36.421112	-0.000001	-5.126347	-22.140896	11.945809	0.962063
152	-0.000007	-36.047760	0.000002	-5.406351	-22.473612	12.273559	0.962543
153	-0.000011	-35.700592	-0.000004	-5.486603	-22.786142	12.646023	0.962178
154	0.000022	-35.232971	0.000005	-5.416497	-22.933344	12.501954	0.964328
155	0.000012	-35.253845	0.000029	-5.323349	-23.364193	12.590688	0.963343
[1buste]
#Fr	Tx	Ty	Tz	Rx	Ry	Rz	SF
149	2.878544	-9.725533	1.939731	1.630590	-5.086559	-2.227457	0.904960
150	3.139812	-9.578369	1.928218	1.590212	-4.948082	-2.380367	0.906521
151	3.450819	-9.472084	1.924109	1.554118	-4.862289	-2.568280	0.907710
152	3.728528	-9.410294	2.074911	1.622756	-5.021811	-2.763642	0.908656
153	3.744710	-9.312675	1.995274	1.564461	-5.496581	-2.771960	0.909536
154	3.627134	-9.170593	1.854942	1.475213	-6.060792	-2.687538	0.910721
155	3.777823	-9.218170	2.119749	1.636112	-6.635381	-2.837665	0.910668
[1brasG]
#Fr	Tx	Ty	Tz	Rx	Ry	Rz	SF
149	-57.160477	-20.400879	31.074142	83.936264	26.277758	67.448593	0.912865
150	-57.408752	-19.967010	31.980198	84.897255	26.128265	67.869324	0.911269
151	-58.007813	-19.424072	33.061882	85.912292	26.011702	68.416443	0.910028
152	-58.301041	-18.747681	34.024616	87.085732	25.868809	68.960609	0.909609
153	-58.768143	-18.269775	34.835388	88.119637	25.616335	69.483353	0.909515
154	-59.404373	-18.089264	35.378632	89.056885	25.317205	69.820793	0.909239
155	-60.044449	-18.406494	35.657448	90.073769	24.958902	70.255821	0.908232
[1brasD]
#Fr	Tx	Ty	Tz	Rx	Ry	Rz	SF
149	1.744400	-71.451782	-17.081564	2.243845	-28.674799	10.567983	0.897312
150	1.993942	-70.691986	-16.448217	2.442173	-28.033754	10.211378	0.899167
151	2.146347	-70.131470	-15.971403	2.638093	-27.298018	9.849387	0.901133
152	2.107773	-69.263306	-14.548349	2.684250	-26.661165	9.506496	0.903416
153	2.004623	-69.112366	-14.642477	3.079980	-26.178858	9.079717	0.902547
154	1.781174	-68.722992	-15.488794	3.599927	-25.853035	8.628030	0.901723
155	1.642975	-69.187500	-17.135015	4.316321	-25.728411	8.083788	0.898930
[1avbrasG]
#Fr	Tx	Ty	Tz	Rx	Ry	Rz	SF
149	-0.000027	-29.452942	-0.000014	34.530251	-0.010985	34.394096	1.148391
150	0.000014	-29.992432	0.000010	34.275284	0.405565	34.068348	1.148539
151	0.000012	-30.412109	0.000007	33.882816	1.300223	34.104641	1.149654
152	-0.000010	-30.553711	0.000013	33.399460	2.105443	34.179768	1.148289
153	-0.000035	-30.585388	-0.000022	33.020363	2.330407	33.901840	1.145986
154	0.000005	-30.678894	0.000001	32.655769	2.491409	33.495094	1.144303
155	0.000006	-31.019165	0.000034	32.168430	2.703184	32.961792	1.142028
[1avbrasD]
#Fr	Tx	Ty	Tz	Rx	Ry	Rz	SF
149	-0.000001	-32.665222	0.000026	69.691559	-9.779351	-85.839073	0.832939
150	0.000002	-32.075073	0.000012	69.461891	-9.425444	-85.045547	0.832606
151	0.000003	-31.449738	0.000014	69.219452	-9.049925	-84.077164	0.831873
152	0.000002	-30.723450	0.000022	68.944542	-8.518293	-83.033554	0.831667
153	0.000008	-30.999908	0.000018	68.583092	-8.250498	-81.484688	0.834100
154	0.000021	-31.262177	0.000007	68.106056	-8.000805	-79.553238	0.838721
155	0.000001	-32.150604	-0.000001	67.551384	-7.893734	-77.576180	0.844268
[1mainG]
#Fr	Tx	Ty	Tz	Rx	Ry	Rz	SF
149	-0.000014	37.664780	-0.000014	2.265093	0.372986	1.685021	1.111951
150	-0.000023	37.702438	-0.000026	2.249365	0.373512	1.649457	1.112254
151	0.000000	37.985367	0.000029	2.226963	0.375397	1.600270	1.113643
152	0.000011	37.638992	0.000004	2.197586	0.377975	1.561176	1.112505
153	0.000004	37.054214	-0.000016	2.172356	0.379859	1.540544	1.110336
154	-0.000031	36.627151	-0.000006	2.149053	0.382075	1.518284	1.108806
155	0.000004	36.049667	-0.000001	2.116760	0.384731	1.487162	1.106756
[1mainD]
#Fr	Tx	Ty	Tz	Rx	Ry	Rz	SF
149	0.000047	-46.267014	0.000029	2.450710	-0.427475	-1.224854	0.785237
150	0.000040	-46.359192	0.000013	2.456237	-0.441937	-1.250846	0.784942
151	0.000049	-46.562027	0.000007	2.464834	-0.457815	-1.276317	0.784218
152	0.000038	-46.619324	0.000013	2.474973	-0.482810	-1.314595	0.784075
153	0.000008	-45.945343	0.000015	2.495427	-0.491319	-1.319911	0.786531
154	0.000034	-44.665634	0.000014	2.520350	-0.496115	-1.317481	0.791214
155	0.000039	-43.129425	0.000001	2.539620	-0.490276	-1.298830	0.796831
[1bassin]
#Fr	Tx	Ty	Tz	Rx	Ry	Rz	SF
149	-893.513184	-824.139709	-143.938904	-106.796707	-16.702477	105.841156	0.920846
150	-892.862488	-823.729126	-146.949158	-106.549828	-17.305086	106.115547	0.920314
151	-892.194824	-823.373962	-149.809753	-106.290558	-17.953400	106.279533	0.919044
152	-891.765503	-822.727417	-152.797363	-106.001907	-18.646826	106.206856	0.919455
153	-891.338867	-822.011169	-155.955811	-105.562508	-19.560856	105.980080	0.920006
154	-890.936096	-821.248413	-159.243652	-105.086876	-20.571074	105.704689	0.921012
155	-890.760132	-820.309631	-162.188354	-104.843330	-21.427536	105.346916	0.921333
[1cuisseG]
#Fr	Tx	Ty	Tz	Rx	Ry	Rz	SF
149	-7.554924	0.065112	-13.428078	-20.568974	-18.361565	-9.793722	1.020692
150	-7.702690	0.129058	-13.683521	-20.758995	-18.633696	-9.936419	1.019412
151	-7.917717	0.214020	-13.644608	-20.879356	-18.790442	-10.066558	1.018218
152	-7.912071	0.278569	-13.363815	-21.005365	-18.889927	-10.074299	1.017029
153	-7.890053	0.312102	-12.859337	-21.298546	-18.828171	-10.300175	1.016478
154	-7.805840	0.311601	-12.552349	-21.614256	-18.823162	-10.482996	1.016545
155	-7.719559	0.326383	-12.241993	-21.617002	-18.555904	-10.714902	1.016566
[1cuisseD]
#Fr	Tx	Ty	Tz	Rx	Ry	Rz	SF
149	1.930176	-0.717899	14.738300	-51.173710	-19.187235	-18.788977	1.074843
150	1.956123	-0.782896	15.096802	-51.619785	-19.364677	-19.132095	1.073643
151	2.149010	-0.870135	15.252396	-52.103077	-19.399378	-19.448807	1.072383
152	2.213715	-0.965306	15.187622	-52.652344	-19.158178	-19.708384	1.071584
153	2.341286	-0.968111	14.944477	-53.329071	-18.725224	-20.048956	1.071034
154	2.359451	-0.925316	14.736568	-54.030228	-18.272919	-20.391041	1.070598
155	2.402512	-1.003061	14.404858	-54.524654	-17.727793	-20.592793	1.070492
[1moletG]
#Fr	Tx	Ty	Tz	Rx	Ry	Rz	SF
149	-0.000027	10.712402	-0.000045	-13.620140	-14.564638	2.094358	0.964984
150	0.000015	10.049622	-0.000013	-13.519536	-14.516912	2.056252	0.964526
151	0.000001	9.431702	0.000018	-13.227922	-14.967694	1.963727	0.964718
152	-0.000020	8.816101	0.000042	-12.950324	-15.139210	2.132565	0.962526
153	-0.000008	8.530884	-0.000009	-12.853476	-14.753449	2.148945	0.962600
154	-0.000001	8.565491	0.000029	-12.486327	-14.217769	2.236552	0.960149
155	0.000005	8.576355	0.000030	-12.097578	-14.031984	2.145846	0.960774
[1moletD]
#Fr	Tx	Ty	Tz	Rx	Ry	Rz	SF
149	0.000003	37.548523	-0.000020	-74.118996	-1.929047	6.509161	0.868526
150	0.000010	36.946533	0.000016	-74.160713	-1.657712	6.675577	0.867440
151	0.000010	36.314331	-0.000017	-74.204254	-1.395253	6.901916	0.867042
152	0.000014	35.913696	0.000023	-74.303894	-1.144815	7.187860	0.866940
153	0.000005	35.637695	-0.000007	-74.366058	-0.837151	7.340972	0.867627
154	0.000011	35.419006	-0.000017	-74.389938	-0.484845	7.602054	0.867934
155	0.000018	35.365601	-0.000024	-74.486465	-0.162645	7.945901	0.867965
[1piedG]
#Fr	Tx	Ty	Tz	Rx	Ry	Rz	SF
149	0.000027	-17.090546	0.000049	2.957796	-0.000001	-0.000005	1.025044
150	0.000004	-17.313904	0.000033	2.714543	-0.000000	-0.000003	1.026809
151	-0.000020	-17.220428	-0.000003	2.427077	0.000001	-0.000004	1.026578
152	0.000003	-18.290039	-0.000031	1.971445	-0.000002	-0.000004	1.026640
153	0.000011	-18.254089	0.000048	1.697598	-0.000001	-0.000003	1.026045
154	0.000020	-19.450195	0.000005	0.971731	-0.000002	-0.000005	1.024606
155	-0.000015	-19.145172	-0.000017	0.535975	0.000001	-0.000007	1.023036
[1piedD]
#Fr	Tx	Ty	Tz	Rx	Ry	Rz	SF
149	0.000016	-67.298798	0.000008	6.002550	-0.000000	0.000001	1.052454
150	0.000004	-67.854645	0.000007	5.966587	-0.000000	-0.000000	1.053719
151	0.000012	-68.058502	0.000012	5.796227	-0.000000	0.000000	1.051925
152	0.000017	-68.110779	0.000005	5.841208	0.000000	0.000000	1.054695
153	-0.000003	-67.759094	0.000015	5.691586	0.000000	0.000000	1.053747
154	0.000026	-67.602234	0.000017	5.613682	-0.000000	0.000000	1.052615
155	0.000009	-67.586243	0.000041	5.594768	-0.000000	0.000000	1.053370
[EndOfFile]
